<svg width="44" height="44" viewBox="0 0 44 44" fill="none" xmlns="http://www.w3.org/2000/svg">
  <path
    d="M25.4315 4.84271C29.2217 1.05243 35.367 1.05243 39.1573 4.84271C42.9476 8.63298 42.9476 14.7782 39.1573 18.5685L18.5685 39.1572C14.7783 42.9475 8.633 42.9475 4.84271 39.1572C1.05243 35.3669 1.05243 29.2217 4.84271 25.4314L25.4315 4.84271Z"
    fill="#F1E5A3" />
  <path fill-rule="evenodd" clip-rule="evenodd"
    d="M40.4441 19.8553L19.8554 40.444C15.3544 44.945 8.05689 44.945 3.55593 40.444C-0.945034 35.9431 -0.945034 28.6456 3.55593 24.1446L24.1447 3.55592C28.6456 -0.945032 35.9431 -0.945032 40.4441 3.55592C44.9451 8.05687 44.9451 15.3544 40.4441 19.8553ZM39.1573 4.84272C35.367 1.05244 29.2218 1.05244 25.4315 4.84271L4.84272 25.4314C1.05244 29.2217 1.05244 35.3669 4.84272 39.1572C8.63301 42.9475 14.7783 42.9475 18.5686 39.1572L39.1573 18.5685C42.9476 14.7782 42.9476 8.63299 39.1573 4.84272Z"
    fill="#27496D" />
  <path fill-rule="evenodd" clip-rule="evenodd"
    d="M5.03998 39.3491C8.8433 42.9464 14.8433 42.8824 18.5685 39.1572L39.1573 18.5685C42.9475 14.7782 42.9475 8.63298 39.1573 4.8427C38.2868 3.97223 37.2921 3.30167 36.2303 2.83102C36.2967 2.89387 36.3625 2.95782 36.4275 3.0229C40.2178 6.81317 40.2178 12.9584 36.4275 16.7487L15.8388 37.3374C12.919 40.2572 8.60169 40.9278 5.03998 39.3491Z"
    fill="#CDBE68" />
  <path
    d="M4.84283 25.4315C1.05255 29.2218 1.05255 35.367 4.84283 39.1573C8.63312 42.9476 14.7784 42.9476 18.5687 39.1573L28.863 28.8629L15.1372 15.1371L4.84283 25.4315Z"
    fill="#0F8EA9" />
  <path fill-rule="evenodd" clip-rule="evenodd"
    d="M18.5686 39.1572C14.8434 42.8824 8.84336 42.9464 5.04004 39.3491C8.60175 40.9278 12.9191 40.2572 15.8389 37.3374L26.5882 26.5881L28.8629 28.8629L18.5686 39.1572Z"
    fill="#0C7B93" />
  <path
    d="M21.1768 32.756C21.1768 33.5097 20.5657 34.1208 19.8119 34.1208C19.0581 34.1208 18.4471 33.5097 18.4471 32.756C18.4471 32.0022 19.0581 31.3911 19.8119 31.3911C20.5657 31.3911 21.1768 32.0022 21.1768 32.756Z"
    fill="#27496D" />
  <path
    d="M16.9465 37.35C16.9465 38.308 16.1699 39.0845 15.212 39.0845C14.254 39.0845 13.4775 38.308 13.4775 37.35C13.4775 36.3921 14.254 35.6155 15.212 35.6155C16.1699 35.6155 16.9465 36.3921 16.9465 37.35Z"
    fill="#27496D" />
  <path
    d="M16.9464 33.0649C16.9464 33.6481 16.4737 34.1208 15.8905 34.1208C15.3073 34.1208 14.8346 33.6481 14.8346 33.0649C14.8346 32.4817 15.3073 32.009 15.8905 32.009C16.4737 32.009 16.9464 32.4817 16.9464 33.0649Z"
    fill="#27496D" />
  <path
    d="M12.0557 39.0845C12.0557 39.6677 11.583 40.1404 10.9998 40.1404C10.4166 40.1404 9.94388 39.6677 9.94388 39.0845C9.94388 38.5013 10.4166 38.0286 10.9998 38.0286C11.583 38.0286 12.0557 38.5013 12.0557 39.0845Z"
    fill="#27496D" />
  <path
    d="M12.4538 35.4298C12.4538 36.013 11.981 36.4857 11.3979 36.4857C10.8147 36.4857 10.3419 36.013 10.3419 35.4298C10.3419 34.8466 10.8147 34.3739 11.3979 34.3739C11.981 34.3739 12.4538 34.8466 12.4538 35.4298Z"
    fill="#27496D" />
  <path
    d="M8.64359 36.9727C8.64359 37.5558 8.17083 38.0286 7.58766 38.0286C7.00449 38.0286 6.53174 37.5558 6.53174 36.9727C6.53174 36.3895 7.00449 35.9167 7.58766 35.9167C8.17083 35.9167 8.64359 36.3895 8.64359 36.9727Z"
    fill="#27496D" />
  <path
    d="M24.6798 30.3352C24.6798 30.9184 24.2071 31.3911 23.6239 31.3911C23.0407 31.3911 22.568 30.9184 22.568 30.3352C22.568 29.752 23.0407 29.2793 23.6239 29.2793C24.2071 29.2793 24.6798 29.752 24.6798 30.3352Z"
    fill="#27496D" />
  <path fill-rule="evenodd" clip-rule="evenodd"
    d="M31.507 5.27668C32.2001 6.00448 32.1721 7.15637 31.4443 7.84951L21.8903 16.9485C21.1625 17.6417 20.0106 17.6136 19.3174 16.8858C18.6243 16.158 18.6524 15.0061 19.3802 14.3129L28.9342 5.21393C29.662 4.52079 30.8139 4.54889 31.507 5.27668Z"
    fill="#FBF2C2" />
  <path fill-rule="evenodd" clip-rule="evenodd"
    d="M31.5001 5.26943C32.1972 5.99338 32.1755 7.14541 31.4515 7.84256L28.3806 10.7997C27.6566 11.4969 26.5046 11.4751 25.8075 10.7512C25.1103 10.0272 25.132 8.8752 25.856 8.17806L28.9269 5.22088C29.6509 4.52373 30.8029 4.54547 31.5001 5.26943Z"
    fill="white" />
</svg>